HIERARCHY
ROOT Hips
{
	OFFSET 0.00000 0.00000 0.00000
	CHANNELS 6 Xposition Yposition Zposition Zrotation Yrotation Xrotation 
	JOINT LHipJoint
	{
		OFFSET 0 0 0
		CHANNELS 3 Zrotation Yrotation Xrotation
		JOINT LeftUpLeg
		{
			OFFSET 1.37959 -1.78713 0.86582
			CHANNELS 3 Zrotation Yrotation Xrotation
			JOINT LeftLeg
			{
				OFFSET 2.54611 -6.99539 0.00000
				CHANNELS 3 Zrotation Yrotation Xrotation
				JOINT LeftFoot
				{
					OFFSET 2.59951 -7.14211 0.00000
					CHANNELS 3 Zrotation Yrotation Xrotation
					JOINT LeftToeBase
					{
						OFFSET 0.18493 -0.50810 1.96120
						CHANNELS 3 Zrotation Yrotation Xrotation
						End Site
						{
							OFFSET 0.00000 -0.00000 1.02054
						}
					}
				}
			}
		}
	}
	JOINT RHipJoint
	{
		OFFSET 0 0 0
		CHANNELS 3 Zrotation Yrotation Xrotation
		JOINT RightUpLeg
		{
			OFFSET -1.33564 -1.78713 0.86582
			CHANNELS 3 Zrotation Yrotation Xrotation
			JOINT RightLeg
			{
				OFFSET -2.52705 -6.94302 0.00000
				CHANNELS 3 Zrotation Yrotation Xrotation
				JOINT RightFoot
				{
					OFFSET -2.55964 -7.03257 0.00000
					CHANNELS 3 Zrotation Yrotation Xrotation
					JOINT RightToeBase
					{
						OFFSET -0.25804 -0.70896 2.12109
						CHANNELS 3 Zrotation Yrotation Xrotation
						End Site
						{
							OFFSET -0.00000 -0.00000 1.11821
						}
					}
				}
			}
		}
	}
	JOINT LowerBack
	{
		OFFSET 0 0 0
		CHANNELS 3 Zrotation Yrotation Xrotation
		JOINT Spine
		{
			OFFSET -0.02031 2.24248 -0.18900
			CHANNELS 3 Zrotation Yrotation Xrotation
			JOINT Spine1
			{
				OFFSET 0.08342 2.24689 -0.03799
				CHANNELS 3 Zrotation Yrotation Xrotation
				JOINT Neck
				{
					OFFSET 0 0 0
					CHANNELS 3 Zrotation Yrotation Xrotation
					JOINT Neck1
					{
						OFFSET -0.11607 1.55844 0.24628
						CHANNELS 3 Zrotation Yrotation Xrotation
						JOINT Head
						{
							OFFSET 0.06877 1.60174 -0.17013
							CHANNELS 3 Zrotation Yrotation Xrotation
							End Site
							{
								OFFSET 0.03358 1.61266 -0.08543
							}
						}
					}
				}
				JOINT LeftShoulder
				{
					OFFSET 0 0 0
					CHANNELS 3 Zrotation Yrotation Xrotation
					JOINT LeftArm
					{
						OFFSET 3.47537 0.55866 -0.72348
						CHANNELS 3 Zrotation Yrotation Xrotation
						JOINT LeftForeArm
						{
							OFFSET 5.38154 -0.00000 0.00000
							CHANNELS 3 Zrotation Yrotation Xrotation
							JOINT LeftHand
							{
								OFFSET 3.33312 -0.00000 0.00000
								CHANNELS 3 Zrotation Yrotation Xrotation
								JOINT LeftFingerBase
								{
									OFFSET 0 0 0
									CHANNELS 3 Zrotation Yrotation Xrotation
									JOINT LeftHandIndex1
									{
										OFFSET 0.71079 -0.00000 0.00000
										CHANNELS 3 Zrotation Yrotation Xrotation
										End Site
										{
											OFFSET 0.57306 -0.00000 0.00000
										}
									}
								}
								JOINT LThumb
								{
									OFFSET 0 0 0
									CHANNELS 3 Zrotation Yrotation Xrotation
									End Site
									{
										OFFSET 0.58181 -0.00000 0.58181
									}
								}
							}
						}
					}
				}
				JOINT RightShoulder
				{
					OFFSET 0 0 0
					CHANNELS 3 Zrotation Yrotation Xrotation
					JOINT RightArm
					{
						OFFSET -3.27844 0.90739 -0.35708
						CHANNELS 3 Zrotation Yrotation Xrotation
						JOINT RightForeArm
						{
							OFFSET -5.16954 -0.00000 0.00000
							CHANNELS 3 Zrotation Yrotation Xrotation
							JOINT RightHand
							{
								OFFSET -3.38287 -0.00000 0.00000
								CHANNELS 3 Zrotation Yrotation Xrotation
								JOINT RightFingerBase
								{
									OFFSET 0 0 0
									CHANNELS 3 Zrotation Yrotation Xrotation
									JOINT RightHandIndex1
									{
										OFFSET -0.81797 -0.00000 0.00000
										CHANNELS 3 Zrotation Yrotation Xrotation
										End Site
										{
											OFFSET -0.65947 -0.00000 0.00000
										}
									}
								}
								JOINT RThumb
								{
									OFFSET 0 0 0
									CHANNELS 3 Zrotation Yrotation Xrotation
									End Site
									{
										OFFSET -0.66953 -0.00000 0.66953
									}
								}
							}
						}
					}
				}
			}
		}
	}
}
MOTION
Frames: 13
Frame Time: .0083333
2.7175 17.2931 1.7958 -6.8826 -10.9557 2.0983 0.0000 0.0000 0.0000 -1.6620 -9.0346 -49.5978 2.3677 9.5932 27.6693 0.0508 2.6432 -6.0596 1.7483 -8.3208 -23.6929 0.0000 0.0000 0.0000 32.2349 -3.0711 19.1670 0.0000 0.0000 -0.0000 -0.1794 9.2538 -9.3278 -0.5205 -4.6236 12.8381 5.4942 0.3528 3.8394 4.5427 0.7793 0.3258 1.5611 0.3564 -1.8109 -9.8106 0.5982 -11.8488 6.9080 1.5371 13.5240 3.9431 0.7834 5.8995 -0.0000 -0.0000 0.0000 -53.3178 -48.2624 -2.2071 25.6431 -36.8541 -8.6727 -0.0000 0.0000 -15.8444 -4.5518 38.5130 -2.8380 -7.1250 0.0000 -0.0000 -47.1144 62.1082 -22.1797 -0.0000 -0.0000 0.0000 88.0549 -10.8273 -4.2527 -10.9865 18.2676 -1.7717 0.0000 -0.0000 -5.7530 -12.8126 13.5298 -3.0456 7.1250 -0.0000 -0.0000 9.9896 -16.2527 6.9014
2.7266 17.2762 1.9539 -7.2012 -11.2674 2.5354 0.0000 0.0000 0.0000 -1.5487 -8.7858 -49.4604 2.3334 9.5285 27.4630 -0.0104 3.2160 -4.0023 1.8982 -8.6506 -24.7084 0.0000 0.0000 0.0000 32.3997 -2.8906 19.4122 0.0000 0.0000 -0.0000 -0.1630 9.2768 -9.1061 -0.6196 -5.0376 14.0159 6.1195 0.5899 3.5315 4.4228 1.0923 0.2844 1.0767 0.5094 -1.6628 -9.9016 0.6053 -12.0588 7.2988 1.5194 13.6959 4.0906 0.8012 5.9851 -0.0000 -0.0000 0.0000 -54.4931 -48.0005 -1.3175 25.7479 -36.9587 -8.7357 -0.0000 0.0000 -15.1756 -4.9823 38.6064 -3.1136 -7.1250 0.0000 -0.0000 -47.6346 62.0614 -22.4350 -0.0000 -0.0000 0.0000 88.4839 -10.1181 -4.5846 -10.9326 18.1849 -1.7548 0.0000 -0.0000 -5.2301 -12.9484 13.8124 -3.1419 7.1250 -0.0000 -0.0000 9.8931 -15.9587 6.8966
2.7415 17.2630 2.1316 -7.1009 -11.6498 2.6666 0.0000 0.0000 0.0000 -1.7805 -8.9513 -48.8382 2.3581 9.5752 27.6116 -0.0550 4.2199 -2.3168 2.3127 -9.4892 -27.3378 0.0000 0.0000 0.0000 32.0737 -2.8034 19.9709 0.0000 0.0000 -0.0000 -0.1668 9.2463 -9.1452 -0.5229 -4.6342 12.8680 6.3006 0.7782 3.1315 4.2611 1.2982 0.4183 0.8064 0.6200 -1.2864 -9.8218 0.4822 -12.6611 7.2178 1.3965 14.0999 4.0593 0.7420 6.2292 -0.0000 -0.0000 0.0000 -55.7504 -47.6123 -0.7304 25.8672 -37.0773 -8.8075 -0.0000 0.0000 -14.5272 -5.4843 38.6337 -3.4304 -7.1250 0.0000 -0.0000 -48.1305 61.9499 -22.6041 -0.0000 -0.0000 0.0000 88.7289 -9.4076 -4.1964 -10.9697 18.2418 -1.7664 0.0000 -0.0000 -5.4048 -13.2090 14.1809 -3.2909 7.1250 -0.0000 -0.0000 9.7121 -15.5683 6.8496
2.7412 17.2568 2.3273 -6.6541 -12.2815 2.6839 0.0000 0.0000 0.0000 -1.9020 -9.6084 -47.9445 2.4228 9.6962 27.9983 -0.1071 5.7953 -2.0360 2.3169 -9.4971 -27.3632 0.0000 0.0000 0.0000 31.3780 -2.5635 20.7649 0.0000 -0.0000 0.0000 -0.1720 9.2512 -9.2226 -0.4223 -4.1707 11.5573 5.7600 0.9509 2.5990 4.1583 1.4504 0.5685 1.0047 0.7090 -0.8381 -9.8574 0.3675 -12.9265 7.0333 1.3004 14.1880 4.0027 0.6808 6.3139 -0.0000 -0.0000 0.0000 -56.4399 -46.8680 -0.1073 25.9493 -37.1586 -8.8570 -0.0000 0.0000 -14.7616 -5.3970 38.6751 -3.3787 -7.1250 0.0000 -0.0000 -48.1061 62.0011 -22.6473 -0.0000 -0.0000 0.0000 88.6977 -8.8406 -3.0196 -11.0427 18.3537 -1.7893 0.0000 -0.0000 -6.1723 -13.3908 14.3948 -3.3870 7.1250 -0.0000 -0.0000 9.5871 -15.3390 6.8069
2.7357 17.2493 2.5003 -7.2256 -12.8425 3.1911 0.0000 0.0000 0.0000 -0.7829 -10.1645 -47.6602 2.5004 9.8387 28.4559 -0.1692 7.3181 -1.8035 1.9394 -8.7387 -24.9814 0.0000 0.0000 0.0000 31.7954 -2.1559 21.1244 0.0000 0.0000 -0.0000 -0.1456 9.2913 -8.8606 -0.4220 -4.1695 11.5540 6.1287 1.1504 2.2626 4.3397 1.7028 0.4442 0.9862 0.8335 -0.7662 -9.8506 0.2889 -12.5614 6.7377 1.2130 13.8216 3.8847 0.6154 6.1467 0.0000 -0.0000 0.0000 -57.2864 -45.9354 1.0699 26.0884 -37.2958 -8.9411 -0.0000 0.0000 -15.1760 -4.8482 38.6718 -3.0339 -7.1250 0.0000 -0.0000 -47.5988 62.1416 -22.5032 0.0000 -0.0000 0.0000 88.6628 -8.3304 -2.2190 -11.0110 18.3051 -1.7794 0.0000 -0.0000 -6.5871 -13.5062 14.6674 -3.4803 7.1250 -0.0000 -0.0000 9.5078 -15.0549 6.8077
2.7319 17.2456 2.6669 -7.5487 -13.0669 3.4975 0.0000 0.0000 0.0000 -0.7865 -9.8541 -47.5320 2.5857 9.9921 28.9511 -0.1742 7.7285 -0.3712 1.6806 -8.1663 -23.2205 0.0000 0.0000 0.0000 31.9278 -2.1109 21.4438 0.0000 -0.0000 0.0000 -0.1130 9.4759 -8.4742 -0.3914 -4.0171 11.1246 6.3658 1.2563 2.2927 4.4163 1.8683 0.2322 0.9263 0.9076 -0.9925 -9.6206 0.2406 -12.1539 6.2553 1.1489 13.3842 3.6709 0.5597 5.9511 0.0000 0.0000 0.0000 -58.5595 -44.7927 2.4788 26.3557 -37.5578 -9.1036 -0.0000 0.0000 -15.4619 -4.3864 38.5801 -2.7387 -7.1250 0.0000 -0.0000 -47.0516 62.1983 -22.2419 0.0000 0.0000 0.0000 88.6986 -7.9636 -1.6639 -10.9788 18.2558 -1.7693 0.0000 -0.0000 -6.7257 -13.3603 14.7071 -3.4506 7.1250 -0.0000 -0.0000 9.6063 -15.0262 6.8863
2.7389 17.2385 2.8554 -7.5205 -13.3848 3.6870 0.0000 0.0000 0.0000 -1.4291 -9.4252 -47.0662 2.6734 10.1466 29.4529 -0.1668 8.2111 1.1674 1.3467 -7.3468 -20.7470 0.0000 0.0000 0.0000 31.5908 -2.0410 21.9663 0.0000 0.0000 -0.0000 -0.0817 9.8028 -8.1849 -0.3524 -3.8140 10.5539 6.4882 1.3331 2.2596 4.2819 1.9906 -0.0560 0.7134 0.9580 -1.2593 -9.1807 0.3018 -11.9389 5.9008 1.1846 13.3681 3.4841 0.5693 5.9121 -0.0000 0.0000 0.0000 -59.7209 -43.2166 3.9181 26.6738 -37.8664 -9.2982 -0.0000 0.0000 -16.1126 -3.9460 38.4192 -2.4545 -7.1250 0.0000 -0.0000 -46.4305 62.2001 -21.8787 -0.0000 0.0000 0.0000 88.9156 -8.1316 -0.5217 -11.2236 18.6301 -1.8467 0.0000 -0.0000 -7.3968 -13.1258 14.7156 -3.3898 7.1250 -0.0000 -0.0000 9.7649 -15.0360 7.0013
2.7508 17.2177 3.0514 -7.2296 -13.8378 3.8619 0.0000 0.0000 0.0000 -2.1865 -9.2470 -46.2651 2.7521 10.2825 29.8963 -0.1714 8.9624 2.2435 0.9561 -6.2265 -17.4429 0.0000 0.0000 0.0000 30.9523 -1.8512 22.5532 0.0000 0.0000 -0.0000 -0.0450 10.0023 -7.7397 -0.3221 -3.6479 10.0880 6.4155 1.4670 1.9828 4.0478 2.1507 -0.2354 0.5128 1.0351 -1.2770 -9.0252 0.3554 -11.9455 5.9183 1.2197 13.7080 3.4734 0.5903 6.0180 0.0000 0.0000 0.0000 -60.8737 -41.7860 5.1925 26.9905 -38.1701 -9.4932 -0.0000 0.0000 -16.4672 -3.7589 38.2293 -2.3281 -7.1250 0.0000 -0.0000 -46.0061 62.1144 -21.5386 0.0000 0.0000 0.0000 89.1671 -8.2020 0.8660 -11.5328 19.1004 -1.9467 0.0000 -0.0000 -8.3099 -13.2063 15.5793 -3.6063 7.1250 -0.0000 -0.0000 9.7084 -14.1596 7.1438
2.7612 17.1931 3.2453 -6.7789 -14.1680 3.9569 0.0000 0.0000 0.0000 -3.3194 -8.8077 -45.5239 2.8284 10.4119 30.3212 -0.1781 9.5635 2.8904 0.7172 -5.4118 -15.0869 0.0000 0.0000 0.0000 30.1814 -1.7990 23.1057 0.0000 0.0000 -0.0000 -0.0081 10.0404 -7.1734 -0.2465 -3.1948 8.8216 6.1033 1.6540 1.5135 3.8883 2.3437 -0.1834 0.5319 1.1413 -0.9576 -9.4319 0.3110 -12.1812 6.2981 1.1919 13.9851 3.6694 0.5842 6.1419 -0.0000 -0.0000 0.0000 -62.2483 -40.9093 6.3504 27.1566 -38.3281 -9.5961 -0.0000 0.0000 -16.1949 -4.2749 38.5526 -2.6673 -7.1250 0.0000 -0.0000 -46.9118 62.2080 -22.1701 -0.0000 -0.0000 0.0000 89.1986 -7.5782 1.5682 -11.5802 19.1721 -1.9622 0.0000 -0.0000 -8.6961 -13.2136 16.1538 -3.7375 7.1250 -0.0000 -0.0000 9.7046 -13.5806 7.2616
2.7676 17.1638 3.4353 -7.2988 -14.2589 4.2683 0.0000 0.0000 0.0000 -3.9502 -7.5607 -45.3734 2.9200 10.5644 30.8246 -0.1161 9.5780 4.4398 0.8181 -5.7715 -16.1230 0.0000 0.0000 0.0000 30.4751 -1.9155 23.5414 0.0000 -0.0000 0.0000 0.0309 10.0530 -6.5219 -0.2096 -2.9475 8.1327 6.7724 1.9414 1.2933 4.0309 2.7236 -0.2926 0.3093 1.3259 -0.9100 -10.1847 0.1202 -12.0386 6.8206 0.9790 13.9244 3.9433 0.4822 6.1081 -0.0000 -0.0000 0.0000 -64.0286 -40.0934 8.2930 27.0594 -38.2357 -9.5358 -0.0000 0.0000 -16.1874 -4.5087 38.6653 -2.8205 -7.1250 0.0000 -0.0000 -47.2782 62.2258 -22.4063 -0.0000 -0.0000 0.0000 89.3181 -7.0986 1.0837 -11.6587 19.2908 -1.9881 0.0000 -0.0000 -8.6583 -12.7971 14.3962 -3.2322 7.1250 -0.0000 -0.0000 9.9897 -15.3825 7.0922
2.7656 17.1329 3.6277 -7.7387 -14.2483 4.4846 0.0000 0.0000 0.0000 -4.6675 -6.4306 -45.0451 3.0376 10.7556 31.4600 0.0090 9.0111 6.4822 0.9802 -6.3023 -17.6641 0.0000 0.0000 0.0000 30.7138 -2.1610 23.9850 0.0000 0.0000 -0.0000 0.0603 9.9993 -5.9507 -0.2104 -2.9535 8.1494 7.1181 1.7865 1.2880 3.9974 2.5332 -0.4473 0.0844 1.2220 -1.0595 -9.3537 0.3679 -12.1178 6.4671 1.2262 13.8130 3.7100 0.6205 6.0720 0.0000 -0.0000 0.0000 -64.4208 -38.3866 9.0317 27.1194 -38.2928 -9.5730 -0.0000 0.0000 -16.5560 -4.4036 38.4842 -2.7437 -7.1250 0.0000 -0.0000 -46.9396 62.1266 -22.0971 0.0000 -0.0000 0.0000 89.7888 -6.6459 1.6242 -11.6959 19.3470 -2.0004 0.0000 -0.0000 -8.5772 -14.0941 15.9250 -3.9408 7.1250 -0.0000 -0.0000 9.1152 -13.7348 6.7784
2.7660 17.1233 3.8388 -7.3102 -14.5200 4.4033 0.0000 0.0000 0.0000 -6.0570 -5.6272 -44.0882 3.1693 10.9643 32.1595 0.1082 8.2054 7.7347 1.2153 -6.9929 -19.6942 0.0000 0.0000 0.0000 29.9606 -2.2310 24.6198 0.0000 -0.0000 0.0000 0.0901 9.9703 -5.3571 -0.1110 -2.1478 5.9143 6.4969 1.7914 1.0106 3.9732 2.4998 -0.4041 0.4125 1.2151 -0.8849 -9.0374 0.4327 -12.2909 6.0298 1.3412 13.7234 3.5259 0.6615 6.0709 -0.0000 -0.0000 0.0000 -65.7451 -36.7266 9.7256 27.4095 -38.5669 -9.7533 -0.0000 0.0000 -16.2835 -4.6634 38.6189 -2.9145 -7.1250 0.0000 -0.0000 -47.3582 62.1531 -22.3733 -0.0000 -0.0000 0.0000 89.6963 -6.1002 2.6157 -11.6995 19.3525 -2.0016 0.0000 -0.0000 -9.0426 -13.5045 16.4320 -3.8865 7.1250 -0.0000 -0.0000 9.5123 -13.2750 7.1756
2.7741 17.1191 4.0568 -7.0875 -14.7055 4.3332 0.0000 0.0000 0.0000 -7.1259 -5.0284 -42.9332 3.2847 11.1422 32.7609 0.2316 4.7770 8.6857 0.2273 -3.0688 -8.4704 0.0000 0.0000 0.0000 29.3667 -2.3703 25.2689 0.0000 -0.0000 0.0000 0.1383 10.0372 -4.4206 -0.0166 -0.8326 2.2882 6.2473 1.8323 0.6584 3.9824 2.5111 -0.3120 0.5739 1.2300 -0.6023 -9.2711 0.4199 -12.4843 6.2134 1.3561 13.7829 3.6288 0.6727 6.1182 0.0000 -0.0000 0.0000 -67.0588 -35.3590 10.7443 27.4404 -38.5959 -9.7726 -0.0000 0.0000 -16.1618 -5.7666 39.5555 -3.6797 -7.1250 0.0000 -0.0000 -49.6453 62.5042 -24.1544 0.0000 -0.0000 0.0000 89.6164 -5.5176 3.4394 -11.7543 19.4351 -2.0198 0.0000 -0.0000 -9.3567 -13.7670 16.8148 -4.0542 7.1250 -0.0000 -0.0000 9.3414 -12.8652 7.1244
